<svg id="visual" viewBox="0 0 1920 1080" width="1920" height="1080" xmlns="http://www.w3.org/2000/svg" xmlns:xlink="http://www.w3.org/1999/xlink" version="1.1"><rect x="0" y="0" width="1920" height="1080" fill="#000000"></rect><path d="M0 657L274 732L549 667L823 773L1097 669L1371 720L1646 701L1920 648L1920 1081L1646 1081L1371 1081L1097 1081L823 1081L549 1081L274 1081L0 1081Z" fill="#000000"></path><path d="M0 802L274 758L549 734L823 803L1097 720L1371 744L1646 770L1920 726L1920 1081L1646 1081L1371 1081L1097 1081L823 1081L549 1081L274 1081L0 1081Z" fill="#2b2b23"></path><path d="M0 881L274 836L549 889L823 898L1097 793L1371 849L1646 789L1920 850L1920 1081L1646 1081L1371 1081L1097 1081L823 1081L549 1081L274 1081L0 1081Z" fill="#515148"></path><path d="M0 959L274 867L549 941L823 972L1097 950L1371 878L1646 899L1920 933L1920 1081L1646 1081L1371 1081L1097 1081L823 1081L549 1081L274 1081L0 1081Z" fill="#7b7b72"></path><path d="M0 996L274 1024L549 955L823 953L1097 1031L1371 1024L1646 1033L1920 946L1920 1081L1646 1081L1371 1081L1097 1081L823 1081L549 1081L274 1081L0 1081Z" fill="#a8a89e"></path></svg>